<svg width="227" height="226" viewBox="0 0 227 226" fill="none" xmlns="http://www.w3.org/2000/svg">
<path d="M112.998 225.359C175.051 225.359 225.355 175.055 225.355 113.002C225.355 50.9485 175.051 0.644531 112.998 0.644531C50.9446 0.644531 0.640625 50.9485 0.640625 113.002C0.640625 175.055 50.9446 225.359 112.998 225.359Z" fill="black" stroke="#000001" stroke-linecap="round" stroke-linejoin="round"/>
<path d="M113.357 225.359C175.41 225.359 225.714 175.055 225.714 113.002C225.714 50.9485 175.41 0.644531 113.357 0.644531C51.304 0.644531 1 50.9485 1 113.002C1 175.055 51.304 225.359 113.357 225.359Z" fill="black" stroke="#000001" stroke-linecap="round" stroke-linejoin="round"/>
<path d="M74 88L113 43L152 88" fill="black"/>
<path d="M74 88L113 43L152 88" stroke="white" stroke-width="10" stroke-linecap="round" stroke-linejoin="round"/>
<path d="M113 46V180" stroke="white" stroke-width="10" stroke-linecap="round" stroke-linejoin="round"/>
</svg>
